<?xml version="1.0" encoding="UTF-8" standalone="no"?>
<svg
   xmlns:dc="http://purl.org/dc/elements/1.1/"
   xmlns:cc="http://creativecommons.org/ns#"
   xmlns:rdf="http://www.w3.org/1999/02/22-rdf-syntax-ns#"
   xmlns:svg="http://www.w3.org/2000/svg"
   xmlns="http://www.w3.org/2000/svg"
   xmlns:sodipodi="http://sodipodi.sourceforge.net/DTD/sodipodi-0.dtd"
   xmlns:inkscape="http://www.inkscape.org/namespaces/inkscape"
   width="192"
   height="192"
   viewBox="0 0 50.8 50.8"
   version="1.1"
   id="svg8"
   inkscape:version="1.0.2-2 (e86c870879, 2021-01-15)"
   sodipodi:docname="logo.svg">
  <defs
     id="defs2" />
  <sodipodi:namedview
     id="base"
     pagecolor="#ffffff"
     bordercolor="#666666"
     borderopacity="1.0"
     inkscape:pageopacity="0.0"
     inkscape:pageshadow="2"
     inkscape:zoom="2.1109915"
     inkscape:cx="0.67568035"
     inkscape:cy="119.83034"
     inkscape:document-units="mm"
     inkscape:current-layer="layer6"
     inkscape:document-rotation="0"
     showgrid="true"
     units="px"
     width="192px"
     inkscape:window-width="1920"
     inkscape:window-height="1017"
     inkscape:window-x="1072"
     inkscape:window-y="286"
     inkscape:window-maximized="1"
     inkscape:snap-object-midpoints="true"
     inkscape:snap-grids="true"
     inkscape:snap-to-guides="false"
     inkscape:snap-center="true"
     inkscape:snap-others="false">
    <inkscape:grid
       type="xygrid"
       id="grid833"
       empspacing="8" />
  </sodipodi:namedview>
  <metadata
     id="metadata5">
    <rdf:RDF>
      <cc:Work
         rdf:about="">
        <dc:format>image/svg+xml</dc:format>
        <dc:type
           rdf:resource="http://purl.org/dc/dcmitype/StillImage" />
        <dc:title />
      </cc:Work>
    </rdf:RDF>
  </metadata>
  <g
     inkscape:groupmode="layer"
     id="layer5"
     inkscape:label="bird_outline"
     style="display:none">
    <path
       style="display:inline;fill:#ff2727;fill-opacity:0.324074;stroke:none;stroke-width:0.264583px;stroke-linecap:butt;stroke-linejoin:miter;stroke-opacity:0.481481"
       d="m 19.798773,18.557367 c 1.504904,0.04964 -0.295621,-0.947687 -0.305898,-2.613901 -0.01098,-1.78016 0.899377,-6.3477918 1.985388,-8.0493138 2.589902,-4.0577648 6.428222,-4.0967045 8.697964,-4.1536168 3.77803,-0.094732 6.117151,2.2960039 8.051254,4.3015123 0.38264,0.3967662 3.774828,1.4009265 4.728667,2.5050063 -0.493912,1.047603 -3.089601,0.943205 -5.370066,2.277313 -0.933161,0.545914 -1.947485,0.72162 -2.525262,2.802684 -0.112422,0.404928 -0.282765,1.030915 -0.43462,1.575182 -0.179163,0.642144 0.153943,0.823463 0.153943,0.823463 0,0 2.427541,2.704367 2.767923,6.671528 0.32967,3.842312 -0.864632,7.195063 -3.571113,9.001111 -0.801949,0.728901 -1.367972,0.478989 -1.929179,0.835531 -1.153202,0.732643 -1.654558,1.617993 -1.759456,3.196497 -0.0547,0.823176 -0.08077,1.983074 0.518372,2.334158 0.355368,0.208237 1.05124,0.54501 2.821455,0.992563 1.327896,0.335724 3.032697,0.581813 3.897521,1.332336 -3.301099,0.251001 -4.357414,-0.443491 -5.93999,-0.177318 -0.200228,1.151519 -0.410925,4.752137 -1.52458,5.259785 -0.818171,-2.115338 -1.166034,-3.828114 -1.298742,-4.534255 -1.278085,0.595342 -2.476578,0.884305 -3.882014,1.178232 -0.901835,0.188606 -1.757941,-0.11448 -2.631052,-0.637625 1.859029,-0.738015 5.71991,-2.106613 5.788739,-2.325211 0.21938,-0.696744 0.285965,-2.082953 -0.38724,-2.781979 -0.916246,-0.951389 -3.7661,0.232269 -4.753914,0.202299 -2.203164,-0.06684 -3.724812,-0.213353 -4.13095,-0.02682 -0.28034,0.128756 -1.044147,0.597901 -1.318567,1.575248 -0.311382,1.108986 -0.212671,2.050398 1.686917,2.993942 0.695299,0.345362 3.196023,0.934955 3.965932,2.706572 -1.304686,-0.396955 -4.558906,-1.472427 -5.547884,-1.328366 -0.436644,1.433027 -0.466873,3.056722 -0.525423,4.392935 -1.653194,-0.25141 -2.561969,-3.713018 -1.903653,-4.9022 -3.458602,0.356432 -4.124907,0.630823 -5.3852309,1.624163 0.3625809,-3.413286 4.8135059,-2.727575 5.1539479,-4.827172 0.602534,-3.715993 -0.615673,-3.963499 -2.25079,-4.008354 -1.143267,-0.03136 -2.186414,0.348126 -3.5025554,-1.078789 -0.956224,-1.136959 -0.07658,-3.826131 1.2310424,-5.341458 2.536526,-2.939424 0.826956,-6.626655 2.681095,-9.138029 1.695419,-2.696902 4.309823,-2.664153 6.748019,-2.657653 z"
       id="path856-8-2"
       sodipodi:nodetypes="csssscssscscssssccccscsssssscccccsscscc" />
  </g>
  <g
     inkscape:groupmode="layer"
     id="layer6"
     inkscape:label="twig_outline"
     style="display:none">
    <path
       style="fill:#ff27e6;fill-opacity:0.324074;stroke:none;stroke-width:0.264583px;stroke-linecap:butt;stroke-linejoin:miter;stroke-opacity:1"
       d="M 6.5346878,44.703877 C 7.9824221,44.754657 9.291417,44.1726 9.291417,44.1726 c 0,0 1.835416,-0.287283 2.530586,-0.313438 1.469934,-0.0553 6.73211,-0.185492 11.638352,0.838582 2.618537,0.546565 6.833673,-1.780117 8.808631,-1.853266 1.163584,-0.0431 2.401778,0.184283 3.628703,0.24565 1.156573,0.05785 2.171966,-0.134502 2.727523,-0.195097 1.851657,-0.201964 3.857161,-3.695145 4.082496,-3.599987 0.457516,0.193208 1.406414,0.725002 1.439397,1.00668 0.02338,0.199656 -0.547106,0.615073 -1.115113,1.219467 -0.55679,0.592459 -1.396335,1.193915 -1.978631,1.52574 1.933319,0.148601 3.134284,0.37774 3.994925,1.373005 0.153279,0.177256 -0.07522,0.779795 -0.601682,1.054164 -0.199619,0.104033 -0.512931,-0.383556 -1.244541,-0.583837 -0.887553,-0.242971 -2.205228,-0.464222 -2.666703,-0.467707 -1.175438,-0.0089 -5.533232,0.161807 -7.997068,0.633748 -3.166494,0.606533 -6.408652,1.128109 -7.075513,1.351793 -2.157651,0.723736 -2.544219,0.818123 -4.772951,0.426553 -2.503379,-0.439822 -6.415019,-0.763139 -7.125496,-0.586855 -1.021177,0.253375 -3.8630362,0.813486 -4.1371451,0.75237 C 8.0870609,46.701367 7.6484223,46.641585 6.3309357,46.559447 5.2015999,46.489039 4.595928,46.842549 4.345189,46.552006 4.0146789,46.169027 4.1469041,45.878569 4.1665374,45.399912 c 0.021147,-0.515556 0.052871,-1.023014 0.1426963,-1.079733 0.3452225,-0.217982 1.3027545,0.331523 2.2254541,0.383699 z"
       id="path970"
       sodipodi:nodetypes="ccsssssssscssssssssssssscc" />
  </g>
  <g
     inkscape:groupmode="layer"
     id="g979"
     inkscape:label="bird"
     style="display:none">
    <path
       id="path977"
       style="display:inline;fill:#ff2727;fill-opacity:0.324074;stroke:none;stroke-width:0.999999px;stroke-linecap:butt;stroke-linejoin:miter;stroke-opacity:0.481481"
       d="m 115.375,14.130859 c -0.43572,-0.0068 -0.87604,-0.0053 -1.32227,0.0059 -8.57855,0.215101 -23.08639,0.362785 -32.874996,15.699219 -4.104608,6.430943 -7.545405,23.693717 -7.503906,30.421874 0.01607,2.605693 1.175911,4.747566 2.144531,6.386719 2.593463,1.165689 5.676503,2.360111 8.837891,3.365235 5.609586,1.783494 11.521205,2.977718 15.058594,2.695312 11.727326,-0.93621 22.374386,-3.97819 31.177736,-7.767578 0.56817,-2.037878 1.20177,-4.364643 1.62109,-5.875 2.18373,-7.865439 6.01802,-8.5285 9.54492,-10.591797 8.61908,-5.042298 18.42817,-4.647977 20.29493,-8.607422 -3.60507,-4.1729 -16.4249,-7.969161 -17.8711,-9.46875 C 137.40086,23.051408 128.88236,14.342512 115.375,14.130859 Z m -1.44531,9.572266 c 0.26762,-0.0049 0.53351,-6.29e-4 0.79883,0.01172 1.92957,0.08979 3.79095,0.654773 5.49414,1.976562 C 121.9659,27.044279 127,30 127,30 c 0,0 -11.44925,6.473539 -17.78125,1.888672 C 106.86582,30.184967 103.45737,27.944223 102,27 c 3.66844,-1.296252 7.91541,-3.22386 11.92969,-3.296875 z M 144,34 l 13,6 -13,4 -8,-5 z m -12.76758,33.945312 c -8.91079,3.746377 -19.55896,6.715914 -31.289061,7.652344 -4.377263,0.349444 -10.370306,-0.977638 -16.166015,-2.820312 -1.858273,-0.590814 -3.64263,-1.244145 -5.367188,-1.914063 0.410682,1.241561 0.680874,2.628454 0.84961,4.128907 0.434354,3.862428 0.233832,8.62043 -0.199219,14.085937 -0.391763,4.944423 -0.98178,9.918185 -1.734375,14.179685 -0.752591,4.26152 -1.617401,7.76261 -2.791016,10.01758 -2.357034,4.52879 -5.696143,8.2386 -11.804687,14.49805 -2.098409,2.15025 -4.04946,4.74799 -5.837891,7.14453 -1.366199,1.83074 -2.61043,3.53493 -3.861328,4.86914 1.001402,0.41287 1.848455,1.04844 2.492188,2.02344 0.868043,-0.22701 1.751931,-0.45503 2.683593,-0.6543 2.303989,-0.49279 4.743752,-0.9054 7.064453,-0.95117 2.320706,-0.0458 4.524481,0.28075 6.363282,1.26172 1.655034,0.88293 2.771056,2.35886 3.585937,3.89453 2.764918,0.0534 6.609066,0.28486 11.318359,0.42773 2.361688,0.0717 7.537399,-1.68666 11.900391,-2.08203 0.182741,-0.33287 0.361557,-0.66504 0.582031,-1.02344 1.233746,-2.00551 3.051876,-4.3747 5.675786,-5.69726 1.73051,-0.87226 3.69509,-1.22575 5.69921,-1.26953 1.84727,-0.0404 3.7248,0.18445 5.50196,0.49804 1.01326,-2.21699 2.58698,-3.92376 4.87109,-5.44336 -1.26363,-3.2272 -2.23009,-7.13464 -2.44531,-11.82031 -0.45328,-9.86856 3.08809,-18.47929 6.59961,-30.265623 2.24892,-7.548449 4.58003,-14.994325 6.38476,-20.677735 -0.0333,-0.02757 -0.0337,-0.01953 -0.0762,-0.0625 z m -56.402342,2.19336 c -9.215229,-0.02457 -19.096023,-0.148094 -25.503906,10.044922 -7.00777,9.491807 -0.545943,23.427476 -10.132813,34.537106 -4.942195,5.72722 -8.268365,15.89034 -4.654297,20.1875 4.974393,5.39307 8.917273,3.9596 13.238282,4.07813 0.596787,0.0164 1.161973,0.0539 1.724609,0.0957 0.160437,-0.1278 0.322812,-0.24831 0.480469,-0.38281 1.194792,-1.01929 2.79575,-3.11935 4.583984,-5.51563 1.788235,-2.39628 3.803502,-5.09858 6.089844,-7.4414 6.076687,-6.2268 9.164992,-9.69529 11.302734,-13.80274 0.846853,-1.62713 1.779421,-5.04806 2.509766,-9.18359 0.730345,-4.135536 1.311527,-9.039832 1.697266,-13.908204 0.427948,-5.401107 0.607464,-10.037973 0.214843,-13.529297 -0.257262,-2.287663 -0.761413,-3.995305 -1.478515,-5.179687 -0.02711,-7.06e-4 -0.04451,9.16e-4 -0.07227,0 z m 58.644532,0.642578 c -1.71139,5.409067 -3.79099,12.071816 -5.77539,18.732422 -3.55106,11.919048 -6.89795,20.215558 -6.48047,29.304688 0.19993,4.3529 1.0847,7.93337 2.23437,10.86914 1.44523,-0.30583 3.01142,-0.5505 4.9629,-2.32422 10.22922,-6.82601 14.74404,-19.49741 13.49804,-34.01953 -0.90469,-10.544214 -5.66684,-18.633767 -8.43945,-22.5625 z m -23,67.88672 c -1.71584,0.0403 -3.2861,0.31111 -4.4707,0.9082 -1.66647,0.83997 -3.13696,2.54682 -4.20899,4.1836 1.1053,0.18459 2.04659,0.57376 2.71289,1.26562 2.5444,2.64199 2.29205,7.88031 1.46289,10.51367 -0.26014,0.8262 -14.852652,5.99978 -21.878903,8.78906 3.299947,1.97725 6.534849,3.12105 9.943359,2.40821 5.311884,-1.11091 9.843274,-2.20302 14.673824,-4.45313 0.50158,2.66888 1.81591,9.1437 4.90821,17.13868 4.20909,-1.91867 5.00495,-15.52867 5.76172,-19.88086 5.98139,-1.00601 9.97457,1.62054 22.45117,0.67187 -3.26863,-2.83662 -9.7136,-3.76823 -14.73242,-5.03711 -6.69058,-1.69154 -9.31899,-2.96296 -10.66211,-3.75 -2.26448,-1.32693 -2.16768,-5.71105 -1.96094,-8.82226 0.088,-1.32415 0.26193,-2.5058 0.50977,-3.59375 -1.51299,-0.24025 -3.06184,-0.37585 -4.50977,-0.3418 z m -45.156251,4.53711 c -2.031994,0.0286 -4.324135,0.32591 -6.507812,0.79297 -0.772123,0.16514 -1.498894,0.35749 -2.230469,0.54492 0.449358,2.19754 0.406056,5.26867 -0.294922,9.5918 -1.28671,7.93548 -18.11009,5.34353 -19.480468,18.24414 4.763422,-3.75436 7.281634,-4.78958 20.353515,-6.13672 -2.488123,4.49454 0.94702,17.57713 7.195313,18.52734 0.221291,-5.05025 0.33602,-11.18735 1.986328,-16.60351 3.737869,-0.54449 16.037653,3.52118 20.96875,5.02148 -2.909893,-6.69588 -12.362333,-8.92516 -14.990235,-10.23047 -7.179545,-3.56615 -7.551876,-7.12496 -6.375,-11.31641 1.037178,-3.69384 3.922869,-5.46648 4.982422,-5.95312 0.210822,-0.0968 0.517176,-0.16538 0.882813,-0.21875 -0.481073,-0.63575 -1.003531,-1.15467 -1.541016,-1.44141 -1.14504,-0.61085 -2.917225,-0.85083 -4.949219,-0.82226 z"
       transform="scale(0.26458333)" />
  </g>
  <g
     inkscape:groupmode="layer"
     id="layer9"
     inkscape:label="twig"
     style="display:none">
    <path
       id="path970-3-3"
       style="display:inline;fill:#ff27e6;fill-opacity:0.324074;stroke:none;stroke-width:0.264583px;stroke-linecap:butt;stroke-linejoin:miter;stroke-opacity:1"
       d="m 42.707468,39.295279 c -0.22533,-0.09516 -2.23078,3.397816 -4.08243,3.59978 -0.18381,0.02006 -0.43194,0.05434 -0.70487,0.0894 -0.10149,0.06745 -0.21854,0.10783 -0.34003,0.117305 -1.706017,0.129717 -2.87007,0.01307 -3.757914,-0.09767 -0.679791,-0.08479 -1.129744,-0.08785 -1.621089,-0.06667 -0.0777,0.597162 -0.152894,1.343179 -0.326596,2.241725 0.223552,-0.04193 0.439796,-0.08013 0.663527,-0.122989 2.463835,-0.471942 6.822002,-0.642453 7.997442,-0.633555 0.46148,0.0035 1.77895,0.224702 2.6665,0.467672 0.73161,0.200282 1.04475,0.687977 1.24437,0.583943 0.52647,-0.274367 0.75531,-0.876943 0.60203,-1.054198 -0.86064,-0.995264 -2.06178,-1.224441 -3.9951,-1.373042 0.58229,-0.331827 1.4219,-0.933547 1.97869,-1.526005 0.56801,-0.604396 1.13856,-1.019392 1.11518,-1.219047 -0.033,-0.281678 -0.98219,-0.81345 -1.43971,-1.006657 z m -14.406354,4.643644 c -0.764622,0.248991 -1.546519,0.482999 -2.305285,0.641821 -0.316905,0.08498 -0.637628,0.164396 -0.968416,0.233576 -0.673083,0.140767 -1.305529,0.02344 -1.914612,-0.183967 -0.01256,-0.0024 -0.02516,-0.0048 -0.03772,-0.0072 0.249568,0.28104 0.518643,0.541528 0.680579,0.914156 0.242336,0.558634 -0.280247,1.145054 -0.862997,0.968415 -0.666025,-0.202639 -1.795018,-0.566425 -2.87321,-0.86093 -0.539094,-0.147249 -1.06513,-0.276709 -1.498099,-0.3576 -0.174968,-0.03269 -0.211394,-0.02125 -0.349333,-0.03514 -0.08896,0.391012 -0.155448,0.797015 -0.213423,1.206127 0.953806,0.105236 1.916676,0.233635 2.731099,0.376722 2.228732,0.39157 2.615184,0.296889 4.772835,-0.426847 0.3858,-0.129408 1.672673,-0.365088 3.269052,-0.652674 -0.208571,-0.738357 -0.330044,-1.326539 -0.430466,-1.816426 z M 9.4366325,44.151312 c -0.01805,0.0028 -0.14521,0.02119 -0.14521,0.02119 0,0 -1.309204,0.582014 -2.756938,0.531233 -0.9227,-0.05218 -1.879965,-0.601419 -2.225187,-0.383437 -0.08983,0.05672 -0.121477,0.563965 -0.142627,1.079519 -0.01963,0.478657 -0.152227,0.769405 0.178283,1.152384 0.250739,0.290502 0.85659,-0.06317 1.985926,0.0072 1.317486,0.08214 1.756325,0.142002 3.096451,0.440799 0.274109,0.06112 3.1160395,-0.499033 4.1372165,-0.752409 0.136549,-0.03388 0.418293,-0.04423 0.75861,-0.04392 -0.08184,-0.459333 -0.103391,-0.913937 -0.07493,-1.35599 -0.964448,0.123597 -1.949135,0.242141 -2.427759,0.392224 -0.665724,0.208753 -1.033571,0.451117 -1.640727,0.929658 -0.4966895,0.390287 -1.2183895,-0.0084 -1.1523845,-0.636653 0.05536,-0.521142 0.201995,-0.981703 0.409277,-1.381829 z"
       sodipodi:nodetypes="ssccsccssssscsssccsccccssccsscccccsscsssccsccc" />
  </g>
  <g
     inkscape:groupmode="layer"
     id="layer8"
     inkscape:label="final"
     style="display:inline">
    <path
       id="rect975-1"
       style="display:inline;fill:#2d50ce;fill-opacity:1;stroke:none;stroke-width:1.05833;stroke-opacity:0.481481;stop-color:#000000"
       d="M 0,0 V 50.799999 H 50.799999 V 0 Z m 30.526302,3.7387897 c 3.573822,0.056 5.827675,2.3602178 7.701338,4.3030965 0.38264,0.396766 3.774553,1.4011934 4.728395,2.5052728 -0.493911,1.047604 -3.089235,0.943273 -5.3697,2.277381 -0.933159,0.545914 -1.947648,0.721348 -2.525427,2.802413 -0.110945,0.399615 -0.278585,1.015238 -0.428913,1.554427 -2.32922,1.002608 -5.146255,1.807467 -8.24911,2.055172 -0.935934,0.07472 -2.500051,-0.241253 -3.984253,-0.713135 -0.836451,-0.265939 -1.652171,-0.581964 -2.338358,-0.890385 -0.256281,-0.433693 -0.563107,-1.000396 -0.567407,-1.689819 -0.01098,-1.780158 0.899397,-6.3476006 1.985408,-8.0491212 2.589902,-4.057761 6.428437,-4.0968416 8.698176,-4.1537516 0.118065,-0.003 0.234566,-0.00335 0.349851,-0.00155 z m -0.382405,2.5326621 c -1.062112,0.019317 -2.185789,0.5293312 -3.156397,0.8722981 0.385595,0.249826 1.287414,0.8426892 1.90996,1.2934611 1.675342,1.2130789 4.704623,-0.4997111 4.704623,-0.4997111 0,0 -1.331939,-0.782035 -1.793171,-1.1399821 -0.450636,-0.3497228 -0.943126,-0.4992055 -1.453658,-0.5229654 -0.0702,-0.00327 -0.140547,-0.0044 -0.211357,-0.0031 z m 7.956102,2.7243814 -2.116666,1.3229168 2.116666,1.322917 3.439584,-1.058334 z m -3.378088,8.9813638 c 0.01126,0.01134 0.01135,0.0092 0.02015,0.01654 -0.477499,1.503737 -1.094274,3.473791 -1.689301,5.470984 -0.92909,3.118468 -1.866077,5.396723 -1.746147,8.00778 0.05694,1.23975 0.312653,2.273593 0.646988,3.127457 -0.604337,0.402063 -1.020717,0.853643 -1.288809,1.440222 -0.470207,-0.08297 -0.96697,-0.142465 -1.455727,-0.131773 -0.530254,0.01158 -1.050052,0.105111 -1.507916,0.335896 -0.694243,0.349928 -1.17529,0.976779 -1.501718,1.5074 -0.05834,0.09483 -0.105646,0.182716 -0.153996,0.270786 -1.154375,0.104608 -2.523782,0.569841 -3.148645,0.55087 -1.246,-0.0378 -2.263098,-0.09904 -2.994649,-0.11317 -0.215604,-0.406313 -0.510885,-0.796819 -0.948779,-1.030428 -0.486516,-0.259551 -1.069598,-0.34595 -1.683619,-0.33383 -0.614018,0.01211 -1.259539,0.12128 -1.869136,0.251664 -0.246502,0.05272 -0.480364,0.113056 -0.710034,0.173117 -0.170321,-0.257969 -0.394437,-0.42613 -0.659391,-0.535369 0.330966,-0.35301 0.660169,-0.80391 1.021643,-1.288293 0.473189,-0.634085 0.989404,-1.321403 1.544608,-1.890324 1.616219,-1.656146 2.499692,-2.6377 3.123324,-3.835942 0.310519,-0.596627 0.539333,-1.522958 0.738456,-2.650485 0.199124,-1.12752 0.355233,-2.443496 0.458887,-3.751708 0.11458,-1.446082 0.167633,-2.704971 0.05271,-3.726904 -0.04465,-0.396995 -0.116133,-0.763944 -0.224793,-1.09244 0.456289,0.177249 0.9284,0.350109 1.420069,0.506429 1.533448,0.487541 3.119107,0.838668 4.277258,0.746208 3.103589,-0.247764 5.920917,-1.033454 8.278564,-2.024683 z m -14.92312,0.580327 c 0.0073,2.42e-4 0.01192,-1.86e-4 0.01912,0 0.189733,0.313368 0.323121,0.765181 0.391191,1.370458 0.103885,0.923746 0.05638,2.150584 -0.05684,3.579627 -0.10206,1.28809 -0.255831,2.585684 -0.449068,3.679879 -0.193237,1.094192 -0.439979,1.999313 -0.664043,2.429825 -0.56561,1.086762 -1.382724,2.004467 -2.990515,3.651974 -0.604927,0.619872 -1.138133,1.334855 -1.611271,1.968871 -0.473137,0.634016 -0.896723,1.189656 -1.212845,1.459344 -0.04171,0.03558 -0.08467,0.06748 -0.127125,0.101285 -0.148864,-0.01106 -0.298402,-0.02102 -0.456302,-0.02532 -1.143267,-0.03136 -2.186487,0.347911 -3.502629,-1.079005 -0.956222,-1.136957 -0.07617,-3.825949 1.231449,-5.341276 2.536526,-2.939423 0.826835,-6.626569 2.680974,-9.137943 1.695419,-2.696899 4.309712,-2.664219 6.747908,-2.657718 z m 15.516366,0.170015 c 0.733586,1.039477 1.993572,3.179838 2.232937,5.969661 0.329671,3.842311 -0.864875,7.194952 -3.571356,9.001001 -0.516329,0.469297 -0.930717,0.53403 -1.313101,0.61495 -0.30418,-0.776756 -0.538276,-1.724089 -0.591177,-2.875794 -0.110458,-2.404832 0.775073,-4.59995 1.714625,-7.753531 0.525039,-1.762286 1.075266,-3.525138 1.528072,-4.956287 z M 29.22974,36.689233 c 0.383098,-0.009 0.792895,0.02686 1.19321,0.09044 -0.06558,0.287851 -0.111596,0.600498 -0.134877,0.950846 -0.0547,0.823172 -0.08031,1.98314 0.518832,2.334223 0.355368,0.208238 1.050801,0.544634 2.821017,0.992188 1.327896,0.335724 3.033128,0.582213 3.897953,1.332735 -3.301101,0.251002 -4.35763,-0.443939 -5.940206,-0.177766 -0.200228,1.151517 -0.4108,4.752497 -1.524455,5.260145 -0.818171,-2.115339 -1.165918,-3.828468 -1.29863,-4.534609 -1.278083,0.595341 -2.477013,0.884295 -3.882449,1.178224 -0.901835,0.188605 -1.757736,-0.114023 -2.630847,-0.637173 1.859028,-0.737994 5.719964,-2.10684 5.788793,-2.325438 0.219381,-0.696744 0.286149,-2.082716 -0.387057,-2.781742 -0.176289,-0.183055 -0.425341,-0.286023 -0.717785,-0.334862 0.283641,-0.433068 0.672706,-0.884669 1.113628,-1.106911 0.313423,-0.157985 0.72889,-0.229635 1.182873,-0.240295 z m -11.947591,1.200444 c 0.537633,-0.0076 1.006522,0.05594 1.309481,0.217556 0.142209,0.07587 0.280443,0.213165 0.407727,0.381373 -0.09674,0.01412 -0.177798,0.03227 -0.233578,0.05788 -0.28034,0.128757 -1.043846,0.597773 -1.318266,1.575096 -0.311381,1.108991 -0.212869,2.05059 1.686719,2.994134 0.695299,0.345363 3.196256,0.935193 3.966166,2.706812 -1.304687,-0.396955 -4.559003,-1.472663 -5.547981,-1.3286 -0.436649,1.433023 -0.467,3.0568 -0.52555,4.393012 -1.653195,-0.25141 -2.562075,-3.712845 -1.903759,-4.902026 -3.458602,0.356431 -4.12488,0.630333 -5.3852006,1.623674 0.3625776,-3.413286 4.8137646,-2.727502 5.1542066,-4.827095 0.185466,-1.143828 0.196924,-1.956398 0.07803,-2.537831 0.193563,-0.04959 0.385854,-0.100488 0.590145,-0.144176 0.577765,-0.123579 1.184227,-0.202208 1.721859,-0.209807 z m 25.42532,1.405599 c 0.457531,0.193207 1.406705,0.724979 1.439707,1.006658 0.02337,0.199654 -0.547169,0.61465 -1.115179,1.219046 -0.556789,0.592458 -1.3964,1.194178 -1.978689,1.526006 1.933329,0.1486 3.134455,0.377777 3.995105,1.373042 0.15327,0.177255 -0.07555,0.779832 -0.602031,1.054197 -0.199609,0.104035 -0.512749,-0.383661 -1.244369,-0.583943 -0.88754,-0.242969 -2.205033,-0.464172 -2.666503,-0.467672 -1.175446,-0.0089 -5.533609,0.161613 -7.997444,0.633555 -0.223731,0.04286 -0.439975,0.08106 -0.663527,0.122989 0.173701,-0.898546 0.248896,-1.644562 0.326596,-2.241724 0.491345,-0.02118 0.941298,-0.01813 1.621089,0.06666 0.887844,0.110739 2.051894,0.227386 3.757911,0.09767 0.121489,-0.0095 0.238541,-0.04986 0.34003,-0.117305 0.272931,-0.03506 0.521057,-0.06934 0.704868,-0.0894 1.851655,-0.201965 3.857107,-3.694941 4.082436,-3.599781 z M 28.301113,43.93892 c 0.100423,0.489886 0.221896,1.078068 0.430467,1.816425 -1.596379,0.287586 -2.883252,0.523267 -3.269052,0.652674 -2.157651,0.723736 -2.544103,0.818417 -4.772835,0.426847 -0.814423,-0.143086 -1.777294,-0.271483 -2.7311,-0.376721 0.05797,-0.409112 0.124464,-0.815115 0.213424,-1.206127 0.137939,0.01389 0.174365,0.0024 0.349333,0.03514 0.432969,0.08089 0.959006,0.210352 1.498099,0.3576 1.078193,0.294505 2.207185,0.658292 2.87321,0.860931 0.58275,0.176638 1.105333,-0.409782 0.862996,-0.968415 -0.161935,-0.372629 -0.43101,-0.633116 -0.680578,-0.914157 0.01256,0.0024 0.02516,0.0048 0.03772,0.0072 0.609083,0.207407 1.241528,0.324736 1.914612,0.183968 0.330787,-0.06918 0.651511,-0.148598 0.968416,-0.233577 0.758766,-0.158822 1.540662,-0.39283 2.305284,-0.641821 z m -18.86448,0.212389 c -0.207283,0.400127 -0.353917,0.860687 -0.409277,1.381829 -0.06601,0.628253 0.655694,1.02694 1.152384,0.636653 0.607156,-0.478541 0.975003,-0.720905 1.640727,-0.929658 0.478624,-0.150083 1.463311,-0.268629 2.427758,-0.392224 -0.02846,0.442053 -0.0069,0.896654 0.07493,1.35599 -0.340318,-3.13e-4 -0.622062,0.01004 -0.758611,0.04392 -1.021176,0.253376 -3.8631066,0.81353 -4.137215,0.752409 C 8.087203,46.701431 7.648365,46.641569 6.330877,46.559429 5.201542,46.489059 4.595692,46.842695 4.344952,46.552229 4.014442,46.16925 4.147039,45.878502 4.166669,45.399844 c 0.02115,-0.515553 0.0528,-1.022799 0.142626,-1.079518 0.345222,-0.217982 1.302489,0.331258 2.225188,0.383437 1.447734,0.05078 2.756937,-0.531233 2.756937,-0.531233 0,0 0.127161,-0.01839 0.145211,-0.02119 z" />
  </g>
</svg>
