<?xml version="1.0" standalone="no"?>
<!DOCTYPE svg PUBLIC "-//W3C//DTD SVG 20010904//EN"
 "http://www.w3.org/TR/2001/REC-SVG-20010904/DTD/svg10.dtd">
<svg version="1.0" xmlns="http://www.w3.org/2000/svg"
 width="700.000000pt" height="700.000000pt" viewBox="0 0 700.000000 700.000000"
 preserveAspectRatio="xMidYMid meet">
<metadata>
Created by potrace 1.14, written by Peter Selinger 2001-2017
</metadata>
<g transform="translate(0.000000,700.000000) scale(0.100000,-0.100000)"
fill="#000000" stroke="none">
<path d="M4087 6484 c-1 -1 -49 -4 -107 -8 -358 -22 -609 -121 -821 -323 -101
-97 -189 -214 -239 -318 -68 -143 -138 -372 -175 -575 -3 -14 -9 -47 -14 -75
-6 -27 -13 -67 -16 -87 -3 -21 -7 -53 -10 -70 -17 -114 -21 -253 -9 -303 4
-17 19 -58 35 -91 28 -61 30 -62 102 -93 124 -51 368 -133 438 -146 42 -8 123
-25 149 -31 42 -10 272 -13 325 -5 28 5 77 12 110 16 225 25 663 145 857 233
l63 29 38 140 c56 206 107 298 202 363 23 16 107 62 186 103 141 72 245 110
444 163 121 32 215 73 252 110 l27 27 -44 39 c-67 57 -195 123 -442 227 l-146
62 -124 123 c-105 103 -182 172 -268 239 -19 15 -113 76 -160 104 -104 63
-283 123 -410 139 -48 6 -238 12 -243 8z m188 -366 c22 -6 90 -44 150 -83 61
-39 132 -85 158 -102 l48 -30 -83 -35 c-148 -63 -232 -84 -345 -87 -113 -3
-157 15 -328 131 l-153 103 31 13 c76 32 267 92 312 97 28 4 51 8 53 10 7 6
121 -6 157 -17z m1029 -382 c28 -14 129 -61 224 -104 95 -44 174 -83 174 -88
1 -5 -54 -26 -123 -47 -314 -97 -321 -99 -345 -89 -12 6 -79 47 -148 90 l-127
80 98 62 c54 34 107 67 118 73 11 7 31 20 44 30 30 21 24 22 85 -7z"/>
<path d="M4655 4473 c-201 -76 -513 -162 -685 -188 -19 -3 -46 -7 -60 -10 -14
-2 -49 -7 -79 -10 -30 -4 -63 -9 -75 -11 -12 -2 -73 -6 -136 -8 -169 -5 -359
32 -615 119 -76 25 -139 44 -141 42 -2 -2 2 -24 9 -48 7 -24 15 -66 17 -94 10
-118 1 -492 -14 -585 -3 -14 -7 -56 -10 -95 -18 -195 -53 -405 -96 -570 -44
-164 -158 -336 -370 -555 -126 -131 -196 -211 -280 -320 -52 -68 -115 -148
-139 -178 -42 -53 -43 -56 -25 -69 10 -7 31 -24 45 -38 26 -24 27 -24 90 -9
35 8 79 17 98 20 18 3 43 8 55 10 11 3 64 7 117 9 181 8 289 -37 358 -149 19
-30 28 -36 59 -37 20 0 75 -2 122 -4 144 -7 324 -7 350 0 37 9 53 13 202 43
l136 27 42 62 c74 112 162 179 275 210 54 14 239 16 287 2 26 -7 31 -4 64 47
20 30 60 76 90 102 l54 48 -25 80 c-13 43 -27 94 -30 113 -3 19 -7 37 -9 40
-9 15 -20 156 -20 256 0 98 8 211 19 262 2 10 11 54 21 98 9 44 36 148 61 230
24 83 50 170 58 195 7 25 27 90 45 145 17 55 54 174 81 265 53 177 125 410
164 528 13 39 21 72 17 71 -4 0 -61 -21 -127 -46z"/>
<path d="M2557 4444 c-1 -1 -45 -5 -98 -8 -192 -13 -330 -55 -448 -136 -65
-44 -155 -135 -197 -200 -16 -25 -32 -47 -35 -50 -14 -12 -69 -140 -83 -195
-16 -64 -32 -181 -41 -305 -11 -155 -16 -197 -31 -289 -28 -165 -79 -290 -165
-402 -175 -227 -252 -406 -252 -589 0 -127 38 -197 150 -273 77 -53 115 -61
289 -64 156 -3 162 -2 185 20 29 27 75 81 109 127 86 116 222 284 274 338 174
181 236 250 295 327 64 83 126 188 141 240 6 22 14 47 17 55 3 8 7 20 8 26 2
7 10 43 18 80 9 38 18 85 21 104 3 19 8 46 10 60 7 40 25 170 31 230 3 30 8
66 10 80 4 23 7 67 20 260 6 91 6 327 0 374 -15 105 -44 185 -68 187 -21 2
-159 4 -160 3z"/>
<path d="M4812 4248 c-28 -90 -81 -262 -117 -383 -36 -121 -77 -254 -90 -295
-26 -81 -74 -235 -81 -260 -2 -8 -15 -55 -29 -105 -82 -291 -96 -517 -49 -747
12 -60 48 -175 57 -184 13 -14 117 35 188 88 272 201 419 459 474 828 14 95
14 405 0 495 -23 145 -79 328 -145 470 -36 77 -141 255 -150 255 -4 0 -29 -73
-58 -162z"/>
<path d="M3967 1938 c-80 -10 -140 -43 -198 -106 -50 -55 -61 -82 -34 -82 57
0 116 -72 137 -167 17 -75 14 -193 -7 -244 -6 -16 -89 -58 -195 -99 -30 -11
-69 -27 -87 -35 -17 -8 -34 -15 -39 -15 -7 0 -127 -45 -199 -75 -16 -7 -83
-32 -147 -56 -65 -24 -118 -47 -118 -51 0 -13 103 -61 170 -78 41 -11 88 -16
126 -14 85 6 347 73 478 123 60 22 111 41 113 41 2 0 3 -10 3 -23 0 -51 95
-391 152 -544 17 -47 22 -52 38 -43 36 19 107 169 123 260 9 48 20 105 23 125
2 11 13 87 24 168 11 82 22 153 26 158 8 14 272 2 379 -17 50 -9 401 -13 415
-4 9 6 2 15 -26 33 -59 37 -161 70 -354 117 -323 78 -500 140 -548 192 -40 43
-52 107 -48 242 2 66 7 135 11 153 6 28 5 33 -16 37 -45 10 -144 12 -202 4z"/>
<path d="M2230 1765 c-47 -7 -92 -15 -100 -18 -8 -3 -28 -8 -43 -11 -23 -6
-27 -11 -22 -27 8 -23 8 -201 1 -234 -2 -11 -7 -42 -10 -70 -17 -121 -78 -172
-338 -281 -171 -71 -284 -159 -332 -258 -25 -53 -47 -131 -39 -140 3 -3 29 13
57 34 115 87 275 134 557 166 128 14 121 14 114 -4 -52 -134 8 -416 116 -554
41 -51 105 -98 134 -98 20 0 23 5 24 57 4 168 21 329 49 458 l17 80 38 3 c21
2 85 -6 144 -18 97 -19 411 -106 526 -145 27 -9 51 -14 53 -12 8 8 -63 105
-101 139 -64 57 -185 127 -295 169 -285 111 -390 205 -392 353 -1 62 25 158
57 207 33 51 94 107 133 121 38 14 39 18 8 47 -51 48 -184 61 -356 36z"/>
<path d="M5857 1561 c-13 -14 -50 -60 -83 -101 -117 -150 -221 -255 -308 -312
-64 -41 -101 -54 -185 -63 -30 -4 -64 -11 -74 -17 -12 -6 -94 -11 -196 -11
-161 -1 -236 3 -361 19 -25 3 -82 7 -127 8 l-83 3 -5 -31 c-3 -17 -12 -78 -20
-136 -8 -58 -17 -114 -19 -126 -4 -21 -3 -21 57 -8 34 7 86 15 116 19 30 4 61
8 70 10 64 11 241 30 391 40 41 2 113 7 160 11 47 3 166 7 265 9 177 3 223 -1
415 -40 62 -12 157 -49 196 -76 23 -16 46 -29 49 -29 13 0 60 42 77 68 10 15
18 39 18 54 0 56 -126 141 -254 173 -90 22 -89 22 -171 30 -120 13 -130 16
-93 36 90 48 388 317 388 350 -1 30 -50 71 -147 120 l-51 27 -25 -27z"/>
<path d="M3815 919 c-65 -20 -317 -84 -378 -95 -50 -8 -103 -9 -152 0 -48 9
-70 14 -70 16 0 1 -8 3 -18 5 -13 2 -8 -7 17 -35 74 -82 85 -142 37 -191 -34
-34 -74 -38 -142 -13 -78 28 -417 124 -504 142 -46 10 -89 16 -94 13 -6 -4
-13 -22 -16 -41 -3 -19 -8 -48 -11 -64 -3 -16 -7 -33 -9 -37 -6 -9 16 -26 35
-26 8 0 40 -3 70 -7 30 -4 66 -9 80 -11 22 -2 119 -17 200 -31 14 -2 48 -7 75
-10 28 -4 71 -10 96 -13 110 -17 214 -1 435 69 51 16 102 31 115 34 218 42
292 56 332 62 29 4 47 11 44 18 -2 6 -14 56 -27 111 -30 132 -28 125 -42 124
-7 0 -40 -9 -73 -20z"/>
<path d="M1255 904 c-94 -36 -195 -56 -295 -59 -92 -3 -118 0 -209 26 -125 35
-147 36 -162 8 -6 -12 -12 -75 -12 -144 -2 -110 0 -125 18 -145 18 -20 25 -21
100 -14 161 14 306 6 475 -27 58 -11 117 -22 131 -24 27 -3 215 26 349 55 25
5 56 12 70 14 14 2 55 11 91 19 36 9 86 17 112 18 l46 3 -4 85 c-2 47 -4 89
-5 94 0 4 -12 5 -27 3 -16 -3 -50 -7 -78 -11 -107 -12 -132 -16 -188 -30 -86
-22 -151 -53 -224 -107 -90 -66 -140 -66 -185 0 -20 30 -15 95 17 185 12 37
22 67 21 66 0 0 -19 -7 -41 -15z"/>
</g>
</svg>
